<?xml version="1.0" encoding="UTF-8" standalone="no"?><!DOCTYPE svg PUBLIC "-//W3C//DTD SVG 1.1//EN" "http://www.w3.org/Graphics/SVG/1.1/DTD/svg11.dtd"><svg width="100%" height="100%" viewBox="0 0 210 50" version="1.1" xmlns="http://www.w3.org/2000/svg" xmlns:xlink="http://www.w3.org/1999/xlink" xml:space="preserve" xmlns:serif="http://www.serif.com/" style="fill-rule:evenodd;clip-rule:evenodd;stroke-linejoin:round;stroke-miterlimit:1.41421;"><g><g><path d="M46.449,6.551l-10.821,-1.744l-10.82,1.744l10.82,5.264l10.821,-5.264Z" style="fill:#e6e7e8;"/><path d="M46.808,5.833l-11.18,-2.102l-11.179,2.102l11.179,4.975l11.18,-4.975Z" style="fill:#a9abae;"/><path d="M53.269,8.295l-11.487,6.713l25.846,13.031l2.872,-1.975l-14.359,-17.769l-2.872,0Z" style="fill:#e6e7e8;"/><path d="M17.731,8.295l11.487,6.713l-25.846,13.031l-2.872,-1.975l14.359,-17.769l2.872,0Z" style="fill:#e6e7e8;"/><path d="M53.269,7.577l-11.487,6.103l25.846,11.846l2.872,-1.795l-14.359,-16.154l-2.872,0Z" style="fill:#a9abae;"/><path d="M17.731,7.577l11.487,6.103l-25.846,11.846l-2.872,-1.795l14.359,-16.154l2.872,0Z" style="fill:#a9abae;"/><path d="M59.013,33.869l-23.385,-14.805l-23.384,14.805l23.384,15.247l23.385,-15.247Z" style="fill:#e6e7e8;"/><path d="M59.013,30.477l-23.385,-13.207l-23.384,13.207l23.384,13.614l23.385,-13.614Z" style="fill:url(#_Linear1);"/></g><g><path d="M174.064,13.963c0.598,3.191 4.789,5.199 7.717,3.537c0.876,-0.497 1.53,-1.313 1.984,-2.225l0.163,-0.339l2.936,0l-0.046,0.158c-0.057,0.164 -0.115,0.328 -0.173,0.492c-1.421,3.92 -6.151,6.423 -10.244,4.856c-4.88,-1.868 -7.279,-9.063 -2.742,-13.452c2.189,-2.117 5.626,-2.808 8.411,-1.648c2.834,1.179 4.964,4.012 4.983,7.143l0,1.478l-12.989,0Zm22.379,0c0.597,3.191 4.789,5.199 7.717,3.537c0.876,-0.497 1.53,-1.313 1.984,-2.225l0.163,-0.339l2.921,0l-0.031,0.158c-0.057,0.164 -0.115,0.328 -0.173,0.492c-1.421,3.92 -6.151,6.423 -10.244,4.856c-4.88,-1.868 -7.279,-9.063 -2.742,-13.452c2.189,-2.117 5.626,-2.808 8.411,-1.648c2.837,1.181 4.964,4.032 4.983,7.143l0,1.478l-12.989,0Zm-49.717,-8.792l3.341,0l0,2.67l-3.341,0c0,2.619 -0.02,5.239 0.001,7.857c0.02,0.8 0.212,1.64 0.84,2.141c0.551,0.44 1.293,0.55 1.972,0.566l0.528,0.004c0,0 -0.003,2.466 -0.003,2.466c-2.484,-0.017 -5.191,-0.593 -5.943,-3.233c-0.194,-0.682 -0.218,-1.705 -0.218,-1.705l0,-15.866l2.823,0l0,5.1Zm44.468,0l3.341,0l0,2.67l-3.341,0c0,2.619 -0.021,5.239 0.001,7.857c0.02,0.8 0.211,1.64 0.839,2.141c0.551,0.44 1.293,0.55 1.973,0.566l0.528,0.004c0,0 -0.003,2.466 -0.003,2.466c-2.485,-0.017 -5.192,-0.593 -5.943,-3.233c-0.194,-0.682 -0.218,-1.705 -0.218,-1.705l0,-15.866l2.823,0l0,5.1Zm-48.942,15.395l-2.746,0l0,-1.642c-0.072,0.065 -0.144,0.128 -0.217,0.191c-3.039,2.544 -7.965,2.183 -10.676,-0.743c-3.239,-3.495 -2.651,-9.921 1.897,-12.576c1.107,-0.646 2.385,-0.965 3.673,-0.987c0.103,0 0.102,0 0.206,0c4.061,0.077 8.01,3.486 7.863,8.041l0,7.716Zm11.934,0.001l-2.801,0l0,-20.523l2.801,0l0,6.5c0.057,-0.054 0.115,-0.106 0.174,-0.159c1.149,-0.989 2.653,-1.478 4.175,-1.451c3.513,0.107 6.519,3.256 6.539,6.939l0,8.694l-2.801,0c0,-3 0.052,-6.001 -0.001,-9.001c-0.075,-2.564 -2.932,-4.607 -5.535,-3.685c-1.492,0.528 -2.543,2.029 -2.551,3.637l0,9.049Zm15.131,-0.001l-2.797,0l0,-20.495l2.797,0l0,20.495Zm-34.932,-13.005c-3.419,0.056 -6.105,4.097 -4.697,7.394c1.247,2.918 5.543,4.157 7.979,1.892c2.938,-2.733 1.785,-9.145 -3.086,-9.285c-0.065,-0.001 -0.131,-0.001 -0.196,-0.001Zm44.689,0.027c-2.224,0.027 -4.318,1.569 -4.957,3.714c0,0 10.043,0.013 10.043,0.013c-0.028,-0.095 -0.058,-0.189 -0.09,-0.282c-0.724,-2.058 -2.797,-3.451 -4.996,-3.445Zm22.379,0c-2.224,0.027 -4.318,1.57 -4.957,3.714c0,0 10.043,0.013 10.043,0.013c-0.028,-0.095 -0.058,-0.189 -0.09,-0.282c-0.724,-2.057 -2.797,-3.451 -4.996,-3.445Z" style="fill:#ff7001;"/><path d="M110.756,13.963c0.598,3.191 4.789,5.199 7.717,3.537c0.876,-0.497 1.53,-1.313 1.984,-2.225l0.163,-0.339l2.919,0l-0.029,0.158c-0.057,0.164 -0.115,0.328 -0.173,0.492c-1.421,3.92 -6.151,6.423 -10.244,4.856c-4.88,-1.868 -7.279,-9.063 -2.742,-13.452c2.189,-2.117 5.626,-2.808 8.411,-1.648c2.834,1.179 4.964,4.012 4.983,7.143l0,1.478l-12.989,0Zm-31.506,0c0.598,3.191 4.789,5.199 7.717,3.537c0.876,-0.497 1.53,-1.313 1.984,-2.225l0.163,-0.339l2.908,0l-0.017,0.158c-0.058,0.164 -0.116,0.328 -0.174,0.492c-1.421,3.92 -6.151,6.423 -10.244,4.856c-4.88,-1.868 -7.279,-9.063 -2.742,-13.452c2.189,-2.117 5.626,-2.808 8.411,-1.648c2.834,1.179 4.964,4.012 4.983,7.143l0,1.478l-12.989,0Zm25.786,-8.792l3.341,0l0,2.67l-3.341,0c0,2.619 -0.02,5.239 0.001,7.857c0.02,0.8 0.212,1.64 0.84,2.141c0.55,0.44 1.293,0.55 1.972,0.566l0.528,0.004c0,0 -0.003,2.466 -0.003,2.466c-2.484,-0.017 -5.191,-0.593 -5.943,-3.233c-0.194,-0.682 -0.218,-1.705 -0.218,-1.705l0,-15.866l2.823,0c0,1.7 0,3.4 0,5.1Zm-8.211,15.395l-2.797,0l0,-20.495l2.797,0l0,20.495Zm4.106,0l-2.772,0l0,-15.395l2.772,0l0,15.395Zm-16.671,-12.978c-2.224,0.027 -4.318,1.569 -4.956,3.714l10.042,0.013c-0.028,-0.095 -0.058,-0.189 -0.089,-0.282c-0.725,-2.058 -2.798,-3.451 -4.997,-3.445Zm31.506,0c-2.224,0.027 -4.318,1.57 -4.957,3.714c0,0 10.043,0.013 10.043,0.013c-0.028,-0.095 -0.058,-0.189 -0.09,-0.282c-0.724,-2.058 -2.797,-3.451 -4.996,-3.445Zm-14.835,-3.266l-2.772,0l0,-4.251l2.772,0l0,4.251Z" style="fill:#0890d3;"/><path d="M150.28,37.261c-1.421,3.92 -6.151,6.423 -10.244,4.856c-4.879,-1.869 -7.279,-9.063 -2.741,-13.452c2.188,-2.117 5.626,-2.808 8.41,-1.649c2.834,1.18 4.964,4.013 4.983,7.144l0,1.478l-12.988,0c0.598,3.199 4.781,5.203 7.717,3.537c0.876,-0.497 1.529,-1.313 1.983,-2.225l0.163,-0.339l2.938,0l-0.047,0.158c-0.058,0.164 -0.116,0.328 -0.174,0.492Zm-70.679,-10.415l3.341,0l0,2.67l-3.341,0c0,2.619 -0.02,5.238 0.001,7.857c0.02,0.8 0.212,1.639 0.84,2.141c0.55,0.44 1.293,0.55 1.972,0.566l0.528,0.004l-0.003,2.465c-2.484,-0.016 -5.191,-0.592 -5.943,-3.233c-0.194,-0.681 -0.218,-1.704 -0.218,-1.704l0,-15.866l2.823,0c0,1.7 0,3.4 0,5.1Zm43.84,5.247l-2.892,0c-1.777,-3.027 -6.472,-4.141 -9.183,-0.647c-2.036,2.624 -0.574,7.19 2.8,8.172c2.283,0.663 4.909,-0.226 6.241,-2.243l0.179,-0.28l2.882,0l0.133,0.209c-0.134,0.284 -0.268,0.568 -0.401,0.852c-0.814,1.477 -1.961,2.771 -3.444,3.536c-5.095,2.63 -12.845,-1.083 -12.204,-8.009c0.534,-5.773 8.709,-9.638 13.818,-5.148c0.728,0.641 1.322,1.429 1.736,2.311l0.463,1.051l-0.128,0.196Zm-17.598,10.148l-2.747,0l0,-1.642c-0.071,0.065 -0.144,0.128 -0.217,0.191c-3.039,2.543 -7.964,2.183 -10.676,-0.743c-3.239,-3.496 -2.65,-9.921 1.898,-12.576c1.106,-0.646 2.384,-0.965 3.672,-0.987c0.103,0 0.103,0 0.206,0c4.061,0.076 8.01,3.485 7.864,8.041l0,7.716Zm21.189,0.001l-2.953,0l0,-20.523l2.877,0c0,4.341 0,8.681 0,13.022l6.101,-7.897l3.089,0l0.159,0.32l-5.617,7.429l6.098,7.303l-0.162,0.346l-3.188,0l-4.507,-5.457l-1.897,2.396l0,3.061Zm27.748,0l-2.903,0l0,-15.397l2.674,0c0,0 -0.105,1.282 0.022,1.152c0.937,-0.919 2.228,-1.46 3.541,-1.435l0.491,0.017l0,2.767c-1.462,0.066 -2.954,0.825 -3.471,1.878c-0.35,0.714 -0.354,1.893 -0.354,1.893l0,9.125Zm-67.745,0l-2.903,0l0,-15.397l2.674,0c0,0 -0.105,1.282 0.022,1.152c0.937,-0.919 2.228,-1.46 3.541,-1.435l0.491,0.017l0,2.767c-1.462,0.066 -2.954,0.825 -3.471,1.878c-0.35,0.714 -0.354,1.893 -0.354,1.893l0,9.125Zm10.94,-13.006c-3.41,0.056 -6.111,4.082 -4.696,7.393c1.246,2.918 5.543,4.158 7.978,1.892c2.937,-2.731 1.826,-9.087 -3.022,-9.282c-0.087,-0.002 -0.173,-0.003 -0.26,-0.003Zm44.734,0.026c-2.22,0.028 -4.316,1.567 -4.956,3.715c0,0 10.042,0.013 10.042,0.013c-0.027,-0.095 -0.057,-0.189 -0.089,-0.283c-0.725,-2.057 -2.798,-3.45 -4.997,-3.445Z" style="fill:#afb1b5;"/><circle cx="171.104" cy="34.241" r="4.472" style="fill:#ff7001;"/><circle cx="184.285" cy="33.77" r="6.12" style="fill:#afb1b5;"/><circle cx="200.527" cy="33.77" r="8.474" style="fill:#0890d3;"/></g></g><defs><linearGradient id="_Linear1" x1="0" y1="0" x2="1" y2="0" gradientUnits="userSpaceOnUse" gradientTransform="matrix(3.85178e-14,27.641,-27.641,3.85178e-14,35.6795,16.9105)"><stop offset="0" style="stop-color:#137bbb;stop-opacity:1"/><stop offset="1" style="stop-color:#0097da;stop-opacity:1"/></linearGradient></defs></svg>